<?xml version="1.0" standalone="no"?>
<!DOCTYPE svg PUBLIC "-//W3C//DTD SVG 20010904//EN"
 "http://www.w3.org/TR/2001/REC-SVG-20010904/DTD/svg10.dtd">
<svg version="1.0" xmlns="http://www.w3.org/2000/svg"
 width="172.000000pt" height="96.000000pt" viewBox="0 0 172.000000 96.000000"
 preserveAspectRatio="xMidYMid meet">
<metadata>
Created by potrace 1.16, written by Peter Selinger 2001-2019
</metadata>
<g transform="translate(0.000000,96.000000) scale(0.100000,-0.100000)"
fill="#000000" stroke="none">
<path d="M875 381 c-26 -86 -17 -152 25 -196 51 -52 213 -133 207 -102 -1 6
-10 21 -21 33 -10 12 -18 26 -19 31 0 4 -7 14 -14 21 -7 8 -11 18 -8 23 4 5 2
9 -3 9 -5 0 -15 12 -23 28 -8 15 -20 33 -27 40 -7 8 -10 18 -7 23 4 5 2 9 -4
9 -5 0 -13 9 -16 20 -3 11 -13 26 -20 34 -8 8 -16 20 -17 27 -2 8 -9 20 -16
27 -7 8 -10 18 -7 23 4 5 2 9 -3 9 -5 0 -17 -27 -27 -59z"/>
</g>
</svg>
